<svg width="129" height="27" viewBox="0 0 129 27" fill="none" xmlns="http://www.w3.org/2000/svg">
<path d="M13.104 26.324C12.336 26.324 11.7 26.156 11.196 25.82C10.716 25.46 10.32 24.92 10.008 24.2L0.936 4.04C0.456 2.96 0.456 2.072 0.936 1.376C1.44 0.655999 2.196 0.295998 3.204 0.295998C4.02 0.295998 4.632 0.487999 5.04 0.872C5.472 1.232 5.844 1.772 6.156 2.492L13.212 18.836L20.268 2.456C20.556 1.76 20.916 1.232 21.348 0.872C21.804 0.487999 22.416 0.295998 23.184 0.295998C24.12 0.295998 24.816 0.655999 25.272 1.376C25.752 2.072 25.752 2.96 25.272 4.04L16.2 24.2C15.864 24.92 15.456 25.46 14.976 25.82C14.52 26.156 13.896 26.324 13.104 26.324ZM35.0688 26.396C32.9808 26.396 31.1808 26.024 29.6688 25.28C28.1808 24.512 27.0288 23.444 26.2128 22.076C25.4208 20.684 25.0248 19.052 25.0248 17.18C25.0248 15.356 25.4088 13.76 26.1768 12.392C26.9688 11 28.0368 9.92 29.3808 9.152C30.7488 8.36 32.3208 7.964 34.0968 7.964C36.6648 7.964 38.7048 8.78 40.2168 10.412C41.7288 12.02 42.4848 14.204 42.4848 16.964C42.4848 17.876 41.9208 18.332 40.7928 18.332H30.2088C30.4008 19.724 30.9048 20.744 31.7208 21.392C32.5608 22.016 33.7128 22.328 35.1768 22.328C35.7528 22.328 36.4008 22.268 37.1208 22.148C37.8648 22.004 38.5728 21.764 39.2448 21.428C39.9408 21.092 40.5288 21.032 41.0088 21.248C41.4888 21.44 41.8128 21.776 41.9808 22.256C42.1728 22.736 42.1728 23.24 41.9808 23.768C41.8128 24.272 41.4168 24.692 40.7928 25.028C39.9528 25.484 39.0168 25.82 37.9848 26.036C36.9768 26.276 36.0048 26.396 35.0688 26.396ZM34.3128 11.564C33.1608 11.564 32.2248 11.912 31.5048 12.608C30.8088 13.304 30.3768 14.276 30.2088 15.524H37.9848C37.8408 12.884 36.6168 11.564 34.3128 11.564ZM54.2171 26.396C49.2491 26.396 46.7651 23.984 46.7651 19.16V12.392H45.2531C43.8371 12.392 43.1291 11.72 43.1291 10.376C43.1291 9.008 43.8371 8.324 45.2531 8.324H46.7651V5.588C46.7651 3.74 47.6771 2.816 49.5011 2.816C51.3011 2.816 52.2011 3.74 52.2011 5.588V8.324H55.6211C57.0131 8.324 57.7091 9.008 57.7091 10.376C57.7091 11.72 57.0131 12.392 55.6211 12.392H52.2011V18.944C52.2011 19.952 52.4291 20.708 52.8851 21.212C53.3651 21.716 54.1211 21.968 55.1531 21.968C55.5131 21.968 55.8491 21.932 56.1611 21.86C56.4731 21.788 56.7611 21.74 57.0251 21.716C57.3611 21.692 57.6371 21.8 57.8531 22.04C58.0691 22.28 58.1771 22.772 58.1771 23.516C58.1771 24.116 58.0811 24.632 57.8891 25.064C57.6971 25.472 57.3611 25.772 56.8811 25.964C56.5691 26.084 56.1371 26.18 55.5851 26.252C55.0571 26.348 54.6011 26.396 54.2171 26.396Z" fill="#242851"/>
<path d="M68.6998 26.396C66.7798 26.396 65.0998 26.024 63.6598 25.28C62.2438 24.512 61.1518 23.432 60.3838 22.04C59.6158 20.648 59.2318 19.004 59.2318 17.108C59.2318 15.212 59.6158 13.58 60.3838 12.212C61.1518 10.844 62.2438 9.8 63.6598 9.08C65.0998 8.336 66.7798 7.964 68.6998 7.964C69.4438 7.964 70.2358 8.06 71.0758 8.252C71.9398 8.42 72.7678 8.72 73.5598 9.152C74.1598 9.44 74.5318 9.848 74.6758 10.376C74.8198 10.88 74.7838 11.384 74.5678 11.888C74.3758 12.392 74.0518 12.764 73.5958 13.004C73.1638 13.22 72.6478 13.172 72.0478 12.86C71.0878 12.356 70.1518 12.104 69.2398 12.104C67.8238 12.104 66.7198 12.548 65.9278 13.436C65.1598 14.3 64.7758 15.536 64.7758 17.144C64.7758 18.728 65.1598 19.976 65.9278 20.888C66.7198 21.776 67.8238 22.22 69.2398 22.22C69.6718 22.22 70.1278 22.172 70.6078 22.076C71.0878 21.956 71.5678 21.764 72.0478 21.5C72.6478 21.188 73.1638 21.152 73.5958 21.392C74.0518 21.632 74.3638 22.004 74.5318 22.508C74.6998 22.988 74.7118 23.492 74.5678 24.02C74.4238 24.548 74.0638 24.956 73.4878 25.244C72.6718 25.652 71.8558 25.94 71.0398 26.108C70.2238 26.3 69.4438 26.396 68.6998 26.396ZM83.1929 26.396C81.8729 26.396 80.7089 26.144 79.7009 25.64C78.6929 25.136 77.8889 24.452 77.2889 23.588C76.7129 22.724 76.4249 21.752 76.4249 20.672C76.4249 19.4 76.7609 18.38 77.4329 17.612C78.1049 16.844 79.1969 16.304 80.7089 15.992C82.2209 15.656 84.2249 15.488 86.7209 15.488H88.0169V14.876C88.0169 13.82 87.7769 13.076 87.2969 12.644C86.8169 12.188 86.0009 11.96 84.8489 11.96C84.2009 11.96 83.4929 12.044 82.7249 12.212C81.9569 12.356 81.1289 12.608 80.2409 12.968C79.5689 13.256 79.0049 13.28 78.5489 13.04C78.0929 12.776 77.7929 12.392 77.6489 11.888C77.5049 11.36 77.5409 10.832 77.7569 10.304C77.9969 9.776 78.4529 9.392 79.1249 9.152C80.2529 8.72 81.3089 8.42 82.2929 8.252C83.3009 8.06 84.2249 7.964 85.0649 7.964C87.8009 7.964 89.8409 8.588 91.1849 9.836C92.5289 11.06 93.2009 12.968 93.2009 15.56V23.552C93.2009 25.4 92.3609 26.324 90.6809 26.324C88.9769 26.324 88.1249 25.4 88.1249 23.552V23.336C87.7649 24.272 87.1529 25.016 86.2889 25.568C85.4489 26.12 84.4169 26.396 83.1929 26.396ZM84.4169 22.76C85.4249 22.76 86.2769 22.412 86.9729 21.716C87.6689 21.02 88.0169 20.12 88.0169 19.016V18.296H86.7569C84.9089 18.296 83.6009 18.464 82.8329 18.8C82.0649 19.112 81.6809 19.664 81.6809 20.456C81.6809 21.128 81.9089 21.68 82.3649 22.112C82.8449 22.544 83.5289 22.76 84.4169 22.76ZM100.064 26.324C98.192 26.324 97.256 25.4 97.256 23.552V10.772C97.256 8.948 98.144 8.036 99.92 8.036C101.696 8.036 102.584 8.948 102.584 10.772V11.42C103.448 9.284 105.236 8.132 107.948 7.964C108.548 7.916 109.004 8.072 109.316 8.432C109.652 8.768 109.832 9.332 109.856 10.124C109.904 10.868 109.748 11.456 109.388 11.888C109.052 12.32 108.476 12.584 107.66 12.68L106.832 12.752C104.144 13.016 102.8 14.384 102.8 16.856V23.552C102.8 25.4 101.888 26.324 100.064 26.324ZM120.956 26.396C118.868 26.396 117.068 26.024 115.556 25.28C114.068 24.512 112.916 23.444 112.1 22.076C111.308 20.684 110.912 19.052 110.912 17.18C110.912 15.356 111.296 13.76 112.063 12.392C112.856 11 113.924 9.92 115.268 9.152C116.636 8.36 118.208 7.964 119.984 7.964C122.552 7.964 124.592 8.78 126.104 10.412C127.616 12.02 128.372 14.204 128.372 16.964C128.372 17.876 127.808 18.332 126.68 18.332H116.096C116.288 19.724 116.792 20.744 117.608 21.392C118.448 22.016 119.6 22.328 121.064 22.328C121.64 22.328 122.288 22.268 123.008 22.148C123.752 22.004 124.46 21.764 125.132 21.428C125.828 21.092 126.416 21.032 126.896 21.248C127.376 21.44 127.7 21.776 127.867 22.256C128.06 22.736 128.06 23.24 127.867 23.768C127.7 24.272 127.304 24.692 126.68 25.028C125.84 25.484 124.904 25.82 123.872 26.036C122.864 26.276 121.892 26.396 120.956 26.396ZM120.2 11.564C119.048 11.564 118.112 11.912 117.392 12.608C116.696 13.304 116.264 14.276 116.096 15.524H123.872C123.728 12.884 122.504 11.564 120.2 11.564Z" fill="#FF7852"/>
</svg>
