<svg width="148" height="55" viewBox="0 0 148 55" fill="none" xmlns="http://www.w3.org/2000/svg">
<path d="M15.2277 41.36C14.2143 41.36 13.3877 41.1467 12.7477 40.72C12.1343 40.2933 11.6143 39.6133 11.1877 38.68L1.50766 17.32C1.08099 16.3867 0.947656 15.5467 1.10766 14.8C1.26766 14.0533 1.64099 13.48 2.22766 13.08C2.81432 12.6533 3.54766 12.44 4.42766 12.44C5.49432 12.44 6.30766 12.68 6.86766 13.16C7.42766 13.64 7.90766 14.3467 8.30766 15.28L15.3477 31.6L22.3877 15.24C22.7877 14.3067 23.2677 13.6133 23.8277 13.16C24.3877 12.68 25.1743 12.44 26.1877 12.44C27.0143 12.44 27.7077 12.6533 28.2677 13.08C28.8277 13.5067 29.1743 14.0933 29.3077 14.84C29.4677 15.56 29.3343 16.3867 28.9077 17.32L19.1877 38.68C18.7877 39.6133 18.2677 40.2933 17.6277 40.72C17.0143 41.1467 16.2143 41.36 15.2277 41.36ZM40.1398 41.44C37.7398 41.44 35.6598 41.0267 33.8998 40.2C32.1665 39.3467 30.8332 38.1467 29.8998 36.6C28.9665 35.0533 28.4998 33.2267 28.4998 31.12C28.4998 29.12 28.9398 27.3467 29.8198 25.8C30.7265 24.2533 31.9532 23.0533 33.4998 22.2C35.0732 21.32 36.8598 20.88 38.8598 20.88C40.8332 20.88 42.5398 21.2933 43.9798 22.12C45.4465 22.9467 46.5665 24.1333 47.3398 25.68C48.1398 27.2 48.5398 28.9867 48.5398 31.04C48.5398 32.08 47.9265 32.6 46.6998 32.6H35.2998C35.5398 33.88 36.0732 34.8 36.8998 35.36C37.7265 35.92 38.8732 36.2 40.3398 36.2C40.8998 36.2 41.5665 36.1333 42.3398 36C43.1132 35.8667 43.8465 35.6533 44.5398 35.36C45.3932 35.04 46.1132 35.04 46.6998 35.36C47.2865 35.6533 47.6732 36.12 47.8598 36.76C48.0732 37.3733 48.0465 38.0133 47.7798 38.68C47.5398 39.32 47.0465 39.8133 46.2998 40.16C45.3665 40.6133 44.3665 40.9333 43.2998 41.12C42.2598 41.3333 41.2065 41.44 40.1398 41.44ZM39.1798 25.48C38.1132 25.48 37.2332 25.8 36.5398 26.44C35.8732 27.08 35.4465 28.0133 35.2598 29.24H42.6998C42.6198 27.9867 42.2732 27.0533 41.6598 26.44C41.0732 25.8 40.2465 25.48 39.1798 25.48ZM61.7711 41.44C58.7844 41.44 56.5711 40.7467 55.1311 39.36C53.6911 37.9733 52.9711 35.88 52.9711 33.08V26.56H51.6111C49.8244 26.56 48.9311 25.68 48.9311 23.92C48.9311 22.1867 49.8244 21.32 51.6111 21.32H52.9711V18.84C52.9711 17.6667 53.2778 16.7733 53.8911 16.16C54.5044 15.5467 55.3844 15.24 56.5311 15.24C58.9044 15.24 60.0911 16.44 60.0911 18.84V21.32H63.3711C65.1844 21.32 66.0911 22.1867 66.0911 23.92C66.0911 25.68 65.1844 26.56 63.3711 26.56H60.0911V32.84C60.0911 34.76 61.0644 35.72 63.0111 35.72C63.3844 35.72 63.7444 35.68 64.0911 35.6C64.4378 35.52 64.7578 35.48 65.0511 35.48C65.4778 35.4533 65.8244 35.5867 66.0911 35.88C66.3578 36.1467 66.4911 36.7733 66.4911 37.76C66.4911 38.56 66.3711 39.24 66.1311 39.8C65.8911 40.3333 65.4644 40.72 64.8511 40.96C64.4778 41.0933 63.9711 41.2 63.3311 41.28C62.6911 41.3867 62.1711 41.44 61.7711 41.44Z" fill="#FF7852"/>
<path d="M78.5223 41.44C76.309 41.44 74.3757 41.0267 72.7223 40.2C71.0957 39.3733 69.829 38.1867 68.9223 36.64C68.0157 35.0933 67.5623 33.2533 67.5623 31.12C67.5623 28.9867 68.0157 27.16 68.9223 25.64C69.829 24.0933 71.0957 22.92 72.7223 22.12C74.3757 21.2933 76.309 20.88 78.5223 20.88C79.2957 20.88 80.109 20.96 80.9623 21.12C81.8157 21.2533 82.6957 21.52 83.6023 21.92C84.2157 22.16 84.6557 22.5333 84.9223 23.04C85.189 23.52 85.2957 24.04 85.2423 24.6C85.2157 25.16 85.0557 25.6667 84.7623 26.12C84.4957 26.5733 84.109 26.88 83.6023 27.04C83.1223 27.2 82.5757 27.1333 81.9623 26.84C81.0823 26.44 80.189 26.24 79.2823 26.24C77.869 26.24 76.7757 26.6667 76.0023 27.52C75.229 28.3733 74.8423 29.5733 74.8423 31.12C74.8423 32.6933 75.229 33.92 76.0023 34.8C76.7757 35.6533 77.869 36.08 79.2823 36.08C79.709 36.08 80.149 36.04 80.6023 35.96C81.0557 35.8533 81.509 35.6933 81.9623 35.48C82.6023 35.1867 83.149 35.1333 83.6023 35.32C84.0823 35.48 84.4557 35.7867 84.7223 36.24C85.0157 36.6667 85.1757 37.16 85.2023 37.72C85.2557 38.28 85.149 38.8133 84.8823 39.32C84.6157 39.8 84.1623 40.16 83.5223 40.4C82.6157 40.8 81.749 41.0667 80.9223 41.2C80.0957 41.36 79.2957 41.44 78.5223 41.44ZM94.6583 41.44C93.1383 41.44 91.7916 41.16 90.6183 40.6C89.4716 40.04 88.5649 39.28 87.8983 38.32C87.2583 37.3333 86.9383 36.2133 86.9383 34.96C86.9383 33.5467 87.3116 32.4267 88.0583 31.6C88.8049 30.7467 90.0049 30.1467 91.6583 29.8C93.3116 29.4267 95.5116 29.24 98.2583 29.24H99.7783V28.68C99.7783 27.72 99.5249 27.04 99.0183 26.64C98.5383 26.24 97.6983 26.04 96.4983 26.04C95.8316 26.04 95.0983 26.12 94.2983 26.28C93.5249 26.4133 92.6449 26.6667 91.6583 27.04C90.7783 27.36 90.0449 27.3467 89.4583 27C88.8716 26.6533 88.4849 26.16 88.2983 25.52C88.1383 24.8533 88.2049 24.2 88.4983 23.56C88.8183 22.8933 89.4183 22.4 90.2983 22.08C91.5783 21.6267 92.7516 21.32 93.8183 21.16C94.9116 20.9733 95.9116 20.88 96.8183 20.88C100.098 20.88 102.525 21.5867 104.098 23C105.698 24.4133 106.498 26.64 106.498 29.68V37.76C106.498 40.16 105.405 41.36 103.218 41.36C101.138 41.36 100.032 40.2933 99.8983 38.16C99.5249 39.1733 98.8849 39.9733 97.9783 40.56C97.0716 41.1467 95.9649 41.44 94.6583 41.44ZM96.2583 36.8C97.2449 36.8 98.0716 36.48 98.7383 35.84C99.4316 35.2 99.7783 34.36 99.7783 33.32V32.6H98.2583C96.6849 32.6 95.5249 32.7733 94.7783 33.12C94.0583 33.44 93.6983 33.96 93.6983 34.68C93.6983 35.2933 93.9116 35.8 94.3383 36.2C94.7916 36.6 95.4316 36.8 96.2583 36.8ZM114.193 41.36C111.766 41.36 110.553 40.16 110.553 37.76V24.52C110.553 22.1467 111.713 20.96 114.033 20.96C115.126 20.96 115.966 21.2667 116.553 21.88C117.166 22.4933 117.473 23.3733 117.473 24.52V24.64C117.926 23.4933 118.659 22.5867 119.673 21.92C120.686 21.2533 121.886 20.9067 123.273 20.88C124.046 20.8533 124.619 21.0533 124.993 21.48C125.393 21.88 125.606 22.64 125.633 23.76C125.633 24.72 125.433 25.48 125.033 26.04C124.633 26.6 123.873 26.9333 122.753 27.04L121.833 27.12C120.419 27.2533 119.393 27.6533 118.753 28.32C118.113 28.96 117.793 29.92 117.793 31.2V37.76C117.793 40.16 116.593 41.36 114.193 41.36ZM138.265 41.44C135.865 41.44 133.785 41.0267 132.025 40.2C130.292 39.3467 128.958 38.1467 128.025 36.6C127.092 35.0533 126.625 33.2267 126.625 31.12C126.625 29.12 127.065 27.3467 127.945 25.8C128.852 24.2533 130.078 23.0533 131.625 22.2C133.198 21.32 134.985 20.88 136.985 20.88C138.958 20.88 140.665 21.2933 142.105 22.12C143.572 22.9467 144.692 24.1333 145.465 25.68C146.265 27.2 146.665 28.9867 146.665 31.04C146.665 32.08 146.052 32.6 144.825 32.6H133.425C133.665 33.88 134.198 34.8 135.025 35.36C135.852 35.92 136.998 36.2 138.465 36.2C139.025 36.2 139.692 36.1333 140.465 36C141.238 35.8667 141.972 35.6533 142.665 35.36C143.518 35.04 144.238 35.04 144.825 35.36C145.412 35.6533 145.798 36.12 145.985 36.76C146.198 37.3733 146.172 38.0133 145.905 38.68C145.665 39.32 145.172 39.8133 144.425 40.16C143.492 40.6133 142.492 40.9333 141.425 41.12C140.385 41.3333 139.332 41.44 138.265 41.44ZM137.305 25.48C136.238 25.48 135.358 25.8 134.665 26.44C133.998 27.08 133.572 28.0133 133.385 29.24H140.825C140.745 27.9867 140.398 27.0533 139.785 26.44C139.198 25.8 138.372 25.48 137.305 25.48Z" fill="#8FC638"/>
</svg>
