<svg width="24" height="24" viewBox="0 0 24 24" fill="none" xmlns="http://www.w3.org/2000/svg">
<path fill-rule="evenodd" clip-rule="evenodd" d="M15.552 7.95208C17.6339 8.15007 19.1878 6.21219 19.3737 4.16632C19.5957 1.97646 18.3358 0.230571 16.3679 0.0205843C14.3341 -0.201402 12.7562 1.4005 12.5822 3.45237C12.3302 5.44424 13.5121 7.74209 15.552 7.95208ZM23.3396 8.71998C22.8296 8.00002 22.0557 7.52005 21.1617 7.36406C19.1938 7.02808 17.496 8.348 17.124 10.4959C16.746 12.5057 17.7779 14.7856 19.8238 15.1396C21.8637 15.4875 23.6156 13.6457 23.9215 11.6598C24.1135 10.5619 23.9035 9.51793 23.3396 8.71998ZM8.58039 7.95209C7.77044 8.03608 6.98449 7.7841 6.31854 7.24413C3.82869 5.23426 4.24867 0.380566 7.75845 0.0205883C11.1482 -0.309391 12.5041 3.84235 10.9262 6.38618C10.3743 7.28013 9.52233 7.85009 8.58039 7.95209ZM12.0423 10.1239C8.41255 10.1719 5.03477 17.7194 4.87278 20.3113C4.88478 23.893 8.60454 24.037 12.0843 23.995H12.0903C12.3622 23.99 12.6322 23.9873 12.8995 23.9847H12.8997C15.1868 23.9622 17.2716 23.9417 18.5339 22.4591C18.9839 21.8952 19.2119 21.1752 19.2119 20.3113C19.0559 17.7494 15.6481 10.1539 12.0423 10.1239ZM6.86463 10.544C7.07462 11.7559 6.82863 12.9678 6.18667 13.8738C5.6827 14.5877 4.96275 15.0557 4.1648 15.1937C2.11893 15.5417 0.367042 13.7058 0.0670611 11.7139C-0.118927 10.61 0.08506 9.56605 0.649024 8.7681C1.15899 8.04815 1.93294 7.56218 2.82689 7.41219C4.79476 7.07021 6.49265 8.39013 6.86463 10.544Z" fill="#FF7751"/>
</svg>
