<svg width="153" height="21" viewBox="0 0 153 21" fill="none" xmlns="http://www.w3.org/2000/svg">
<g clip-path="url(#clip0_3072_39)">
<path d="M9.51753 20.9428C8.16148 20.9428 6.90586 20.6857 5.7507 20.1714C4.59554 19.638 3.58268 18.9048 2.71212 17.9714C1.85831 17.0191 1.18865 15.9047 0.703142 14.6286C0.234381 13.3524 0 11.9714 0 10.4857C0 8.98095 0.234381 7.6 0.703142 6.34285C1.18865 5.06666 1.85831 3.9619 2.71212 3.02856C3.58268 2.09523 4.58717 1.3619 5.72559 0.828563C6.88075 0.29523 8.12799 0.0285645 9.46732 0.0285645C10.8736 0.0285645 12.1375 0.285707 13.2593 0.799993C14.3809 1.29523 15.3687 1.99047 16.2225 2.88571L13.2091 6.31428C12.7905 5.78095 12.2715 5.36189 11.6521 5.05713C11.0327 4.75237 10.3044 4.59999 9.46732 4.59999C8.74746 4.59999 8.08613 4.73332 7.48344 5C6.89749 5.26666 6.38688 5.66666 5.9516 6.19999C5.51632 6.71427 5.17312 7.33332 4.92199 8.05714C4.68762 8.78094 4.57042 9.5905 4.57042 10.4857C4.57042 11.3809 4.68762 12.1905 4.92199 12.9143C5.17312 13.6381 5.51632 14.2666 5.9516 14.8C6.38688 15.3142 6.89749 15.7143 7.48344 16C8.08613 16.2667 8.74746 16.4 9.46732 16.4C10.3044 16.4 11.041 16.2571 11.6772 15.9714C12.3134 15.6667 12.8575 15.2381 13.3095 14.6857L16.323 18.1143C15.4524 19.0095 14.4647 19.7048 13.3597 20.2C12.2715 20.6952 10.9908 20.9428 9.51753 20.9428Z" fill="white"/>
<path d="M16.519 20.6286L23.4249 0.37146H27.7694L34.5998 20.6286H29.9038L24.7559 3.60003H26.3881L21.1146 20.6286H16.519Z" fill="white"/>
<path d="M36.2666 20.6286V0.37146H40.7617V20.6286H36.2666ZM39.8325 20.6286V16.2286H48.4209V20.6286H39.8325Z" fill="white"/>
<path d="M50.5149 20.6286V0.37146H55.01V20.6286H50.5149Z" fill="white"/>
<path d="M58.1663 20.6286V0.37146H62.6613V20.6286H58.1663ZM61.7322 13.0572V8.74289H70.5466V13.0572H61.7322ZM61.7322 4.68574V0.37146H70.9484V4.68574H61.7322Z" fill="white"/>
<path d="M81.7648 21C80.392 21 79.128 20.7333 77.9728 20.2C76.8177 19.6667 75.8048 18.9238 74.9343 17.9714C74.0804 17.0191 73.4108 15.9047 72.9253 14.6286C72.4398 13.3334 72.197 11.9429 72.197 10.4571C72.197 8.97143 72.4314 7.6 72.9001 6.34286C73.3857 5.06667 74.0553 3.95238 74.9092 3C75.7629 2.04761 76.7675 1.31428 77.9226 0.800002C79.0778 0.266667 80.3418 0 81.7146 0C83.0874 0 84.3514 0.266667 85.5067 0.800002C86.6614 1.31428 87.6664 2.04761 88.5202 3C89.3739 3.95238 90.035 5.06667 90.5041 6.34286C90.9893 7.61905 91.2319 9 91.2319 10.4857C91.2319 11.9714 90.9893 13.3524 90.5041 14.6286C90.035 15.9047 89.3739 17.0286 88.5202 18C87.6664 18.9524 86.6614 19.6952 85.5067 20.2285C84.3681 20.7428 83.1209 21 81.7648 21ZM81.7146 16.4286C82.719 16.4286 83.5896 16.181 84.3263 15.6858C85.0629 15.1904 85.6318 14.4952 86.0341 13.6C86.4357 12.7048 86.6368 11.6571 86.6368 10.4571C86.6368 9.58096 86.5193 8.78095 86.2852 8.05715C86.0671 7.33333 85.7408 6.71428 85.3055 6.2C84.8702 5.66667 84.3513 5.25714 83.7487 4.97143C83.146 4.68571 82.468 4.54286 81.7146 4.54286C80.7101 4.54286 79.8395 4.79048 79.1029 5.28572C78.3663 5.7619 77.7971 6.44762 77.3953 7.34286C76.9934 8.2381 76.7926 9.2762 76.7926 10.4571C76.7926 11.3714 76.9014 12.2 77.1191 12.9429C77.3534 13.6667 77.6882 14.2953 78.1235 14.8286C78.5588 15.3429 79.0778 15.7428 79.6805 16.0285C80.2832 16.2952 80.9612 16.4286 81.7146 16.4286Z" fill="white"/>
<path d="M97.046 12.4286V8.77146H100.436C101.173 8.77146 101.734 8.57146 102.119 8.17146C102.521 7.75241 102.721 7.19051 102.721 6.48575C102.721 5.80003 102.521 5.24765 102.119 4.8286C101.734 4.39051 101.173 4.17146 100.436 4.17146H97.046V0.37146H101.065C102.27 0.37146 103.324 0.628603 104.229 1.14289C105.149 1.65718 105.869 2.36194 106.388 3.25718C106.907 4.15241 107.167 5.20003 107.167 6.40003C107.167 7.60003 106.899 8.65718 106.363 9.57145C105.844 10.4667 105.115 11.1715 104.178 11.6858C103.24 12.181 102.144 12.4286 100.889 12.4286H97.046ZM93.4805 20.6286V0.37146H97.9758V20.6286H93.4805ZM103.124 20.6286L97.9504 11.9429L101.994 10.8286L108.321 20.6286H103.124Z" fill="white"/>
<path d="M109.789 20.6286V0.37146H112.927L114.283 4.51432V20.6286H109.789ZM122.069 20.6286L111.672 5.60003L112.927 0.37146L123.349 15.4L122.069 20.6286ZM122.069 20.6286L120.913 16.3714V0.37146H125.408V20.6286H122.069Z" fill="white"/>
<path d="M128.573 20.6286V0.37146H133.069V20.6286H128.573Z" fill="white"/>
<path d="M134.919 20.6286L141.825 0.37146H146.169L153 20.6286H148.304L143.156 3.60003H144.789L139.515 20.6286H134.919Z" fill="white"/>
</g>
<defs>
<clipPath id="clip0_3072_39">
<rect width="153" height="21" fill="white"/>
</clipPath>
</defs>
</svg>
