<svg width="86" height="43" viewBox="0 0 86 43" fill="none" xmlns="http://www.w3.org/2000/svg">
<path d="M0.5 0.5V28H7V20.5L10 18L17.5 28H26.5L15 13.5L26.5 0.5H17.5L7.5 12V0.5H0.5Z" fill="#3F0D5E"/>
<path d="M28.5 7.5V27.5L35.5 22V7.5H28.5Z" fill="#3F0D5E"/>
<path d="M28.5 0.5L35.5 7.5H46V18.5V33L53.5 27.5V0.5H28.5Z" fill="#3F0D5E"/>
<path d="M58.5 0.5V28H65V20.5L68 18L76 28H84.5L73 13.5L84.5 0.5H75L65 12V0.5H58.5Z" fill="#3F0D5E"/>
<path d="M35.5 7.5V22L28.5 27.5V7.5H35.5ZM35.5 7.5L28.5 0.5H53.5V27.5L46 33V18.5V7.5H35.5ZM0.5 0.5V28H7V20.5L10 18L17.5 28H26.5L15 13.5L26.5 0.5H17.5L7.5 12V0.5H0.5ZM58.5 0.5V28H65V20.5L68 18L76 28H84.5L73 13.5L84.5 0.5H75L65 12V0.5H58.5Z" stroke="#3F0D5E"/>
<path d="M46 33L36 41V26L46 18.5V33Z" fill="#8D49F8" stroke="#8D49F8"/>
</svg>
